<?xml version="1.0" encoding="UTF-8"?>
<svg id="Tuncay_Şenyurt" data-name="Tuncay Şenyurt" xmlns="http://www.w3.org/2000/svg" viewBox="0 0 1236.17 3100.17">
  <defs>
    <style>
      .cls-1 {
        fill: #af8b4d;
      }
    </style>
  </defs>
  <g>
    <path class="cls-1" d="M46.31,2603.35c9.36-1,17.12-2.92,23.3-5.76,6.18-2.84,11.35-6.59,15.53-11.28,4.17-4.67,7.85-10.1,11.02-16.28,3.17-6.18,6.43-13.28,9.77-21.3l98.21-228.99-9.02-24.05c10.69-2.01,21.21-4.42,31.57-7.27,10.35-2.84,20.37-6.43,30.07-10.77l108.74,295.14c4.01,10.69,11.02,18.46,21.05,23.3,10.02,4.84,20.21,7.27,30.57,7.27v12.02c-6.35-.34-13.53-.67-21.55-1-8.02-.34-16.03-.59-24.05-.75-8.02-.17-16.04-.25-24.05-.25h-21.05c-14.03,0-27.98.17-41.84.5-13.86.33-27.81.83-41.84,1.5v-12.02c17.37-1.33,30.23-4.17,38.58-8.52,8.35-4.34,12.53-10.85,12.53-19.54,0-3.01-.59-6.85-1.75-11.53-1.18-4.67-2.68-9.43-4.51-14.28-1.84-4.84-3.68-9.69-5.51-14.53-1.84-4.84-3.43-8.93-4.76-12.27l-17.04-49.61h-99.72l-25.56,70.65c-1.68,4.68-3.43,9.19-5.26,13.53-1.84,4.34-2.76,9.86-2.76,16.53,0,4.01,1.42,7.69,4.26,11.02,2.83,3.34,6.51,6.26,11.02,8.77,4.51,2.51,9.35,4.59,14.53,6.26,5.17,1.68,9.94,2.84,14.28,3.51v12.02c-10.69-.67-21.47-1.17-32.32-1.5-10.86-.34-21.63-.5-32.32-.5-10.02,0-20.04.17-30.07.5-10.02.33-20.04.83-30.07,1.5v-12.02ZM253.26,2454.03l-41.09-117.25h-1l-43.59,117.25h85.69Z"/>
    <path class="cls-1" d="M594.5,2425.47h26.06c8.68,0,17.2-1.08,25.55-3.26,8.35-2.17,16.11-5.68,23.3-10.52,7.18-4.84,13.44-11.28,18.79-19.29,5.34-8.02,9.35-17.87,12.02-29.57h10.02c-.34,11.7-.75,23.55-1.25,35.58-.5,12.03-.75,23.89-.75,35.58s.25,23.97.75,35.83c.5,11.86.92,23.8,1.25,35.83h-10.02c-2.68-12.35-6.01-22.71-10.02-31.07-4.01-8.35-9.19-15.03-15.53-20.04-6.35-5.01-13.86-8.6-22.55-10.77-8.69-2.17-19.21-3.26-31.57-3.26h-26.06v115.75c0,8.02.67,14.87,2.01,20.54,1.33,5.68,4.09,10.36,8.27,14.03,4.17,3.68,10.18,6.35,18.04,8.02,7.84,1.68,18.12,2.5,30.82,2.5v14.03c-16.04-.67-31.91-1.17-47.6-1.5-15.71-.34-31.57-.5-47.6-.5-14.03,0-27.89.17-41.59.5-13.7.33-27.56.83-41.59,1.5v-14.03c11.02,0,19.96-.83,26.81-2.5,6.85-1.67,12.1-4.34,15.79-8.02,3.67-3.67,6.18-8.35,7.52-14.03,1.33-5.68,2.01-12.53,2.01-20.54v-200.43c0-9.35-.59-17.54-1.76-24.55-1.17-7.02-3.59-12.85-7.27-17.54-3.68-4.67-8.94-8.27-15.78-10.77-6.85-2.51-15.96-3.92-27.31-4.26v-14.03c17.04.67,34.15,1.34,51.36,2,17.2.67,34.32,1,51.36,1,32.4,0,64.55-.33,96.46-1,31.9-.67,64.05-1.33,96.46-2-.34,6.01-.5,12.03-.5,18.04v17.54c0,10.36.08,20.71.25,31.07.17,10.36,1.08,20.72,2.76,31.07h-10.02c-7.35-28.39-19.79-48.61-37.33-60.63-17.54-12.03-42.68-18.04-75.41-18.04h-56.12v121.76Z"/>
    <path class="cls-1" d="M1088.56,2384.38c-3.34-12.35-8.77-23.88-16.29-34.57-7.52-10.69-16.21-20.04-26.05-28.06-9.86-8.02-20.63-14.36-32.32-19.04-11.7-4.67-23.55-7.02-35.58-7.02-15.03,0-27.81,3.93-38.33,11.77-10.52,7.85-15.78,19.63-15.78,35.33,0,12.02,4.76,22.22,14.28,30.57,9.52,8.35,21.46,15.96,35.83,22.8,14.36,6.85,29.81,13.78,46.35,20.79,16.54,7.02,31.98,15.46,46.35,25.31,14.36,9.86,26.31,21.63,35.83,35.33,9.52,13.7,14.28,30.74,14.28,51.11,0,14.37-2.84,27.39-8.52,39.08-5.68,11.7-13.7,21.63-24.05,29.82-10.36,8.19-22.89,14.53-37.58,19.04-14.7,4.51-31.07,6.76-49.11,6.76-8.36,0-16.71-.75-25.05-2.25-8.36-1.5-16.62-3.18-24.8-5.01-8.19-1.84-16.46-3.51-24.8-5.01-8.36-1.5-16.71-2.25-25.05-2.25-1.34,0-3.09.25-5.26.75-2.18.5-4.51,1.09-7.02,1.76-2.51.67-4.93,1.34-7.27,2-2.34.67-4.18,1.33-5.51,2-2.68-18.7-5.51-37.58-8.52-56.62-3.01-19.04-6.85-38.25-11.53-57.63h11.02c3.67,12.36,9.69,24.55,18.04,36.58,8.35,12.03,18.12,22.8,29.31,32.32,11.19,9.52,23.3,17.12,36.33,22.8,13.03,5.68,25.88,8.52,38.58,8.52,11.02,0,21.05-.83,30.07-2.5,9.02-1.67,16.79-4.42,23.3-8.27,6.51-3.84,11.52-9.02,15.03-15.54,3.51-6.51,5.26-14.78,5.26-24.8,0-13.69-4.85-25.13-14.53-34.32-9.69-9.18-21.8-17.54-36.33-25.05-14.53-7.52-30.24-14.78-47.1-21.8-16.87-7.02-32.57-15.03-47.1-24.05-14.53-9.02-26.64-19.71-36.33-32.07-9.69-12.35-14.53-27.56-14.53-45.6,0-31.4,9.52-54.2,28.56-68.4,19.04-14.2,47.93-21.3,86.69-21.3,10.02,0,19.71.75,29.06,2.25,9.35,1.51,18.2,3.26,26.56,5.26,8.35,2.01,16.2,3.76,23.55,5.26,7.35,1.5,14.2,2.26,20.54,2.26h18.04c-.34,5.68-.67,11.02-1,16.03-.34,5.01-.5,10.19-.5,15.53,0,9.69.42,19.72,1.25,30.07.83,10.36,1.58,20.38,2.26,30.07h-10.52Z"/>
  </g>
  <g>
    <path class="cls-1" d="M45.88,2817c8.07.37,16.09.73,24.07,1.1,7.98.37,16,.55,24.07.55,16.69,0,33.29-.55,49.8-1.65v6.6c-6.24,0-11.74,1.06-16.51,3.16-4.77,2.11-7.15,5.64-7.15,10.59,0,1.84,1.65,5.19,4.95,10.04,3.3,4.86,7.47,10.64,12.52,17.34,5.04,6.7,10.5,13.94,16.37,21.73,5.87,7.8,11.28,15.54,16.23,23.25,1.28-2.02,3.02-4.86,5.23-8.53,2.2-3.67,4.58-7.75,7.15-12.24,2.57-4.49,5.18-9.17,7.84-14.03,2.66-4.86,5.09-9.49,7.29-13.9,2.2-4.4,3.99-8.43,5.37-12.1,1.38-3.67,2.06-6.51,2.06-8.53,0-6.42-2.06-10.77-6.19-13.07-4.13-2.29-8.94-3.53-14.45-3.71v-6.6c6.42.37,12.79.73,19.12,1.1,6.33.37,12.7.55,19.12.55,5.87,0,11.69-.18,17.47-.55,5.78-.37,11.6-.73,17.47-1.1v6.6c-5.5.19-10.28,1.24-14.31,3.16-4.03,1.93-7.84,4.68-11.42,8.25-3.58,3.58-7.06,7.89-10.46,12.93-3.4,5.05-7.2,10.69-11.42,16.92l-34.94,52.28v49.8c0,4.95.36,9.04,1.1,12.24.73,3.21,2.15,5.73,4.26,7.56,2.11,1.84,5.04,3.12,8.81,3.85,3.76.73,8.67,1.19,14.72,1.38l.28,6.6c-7.89-.37-15.68-.64-23.39-.82-7.7-.19-15.41-.28-23.11-.28-8.26,0-16.37.09-24.35.28-7.98.18-16.01.46-24.07.82v-6.6c6.05-.18,10.96-.64,14.72-1.38,3.76-.73,6.69-2.02,8.8-3.85,2.11-1.83,3.53-4.35,4.26-7.56.73-3.21,1.1-7.29,1.1-12.24v-47.6l-57.23-75.39c-4.77-6.23-9.72-11.19-14.86-14.86-5.14-3.67-11.93-5.5-20.36-5.5v-6.6Z"/>
    <path class="cls-1" d="M247.56,2991.99c5.14-.55,9.4-1.6,12.79-3.16,3.39-1.56,6.23-3.62,8.53-6.19,2.29-2.56,4.31-5.55,6.05-8.94,1.74-3.39,3.53-7.29,5.36-11.69l53.93-125.74-4.95-13.21c5.87-1.1,11.65-2.43,17.33-3.99,5.68-1.55,11.19-3.53,16.51-5.92l59.7,162.05c2.2,5.87,6.05,10.14,11.56,12.79,5.5,2.66,11.09,3.99,16.78,3.99v6.6c-3.49-.18-7.43-.37-11.83-.55-4.4-.18-8.81-.32-13.21-.41-4.4-.09-8.81-.14-13.21-.14h-11.56c-7.7,0-15.36.09-22.97.28-7.61.18-15.27.46-22.98.82v-6.6c9.54-.73,16.6-2.29,21.19-4.68,4.58-2.38,6.88-5.96,6.88-10.73,0-1.65-.32-3.76-.96-6.33-.64-2.57-1.47-5.18-2.48-7.84-1.01-2.66-2.02-5.32-3.02-7.98-1.01-2.65-1.88-4.9-2.61-6.74l-9.36-27.24h-54.75l-14.03,38.79c-.92,2.57-1.88,5.05-2.89,7.43-1.01,2.39-1.51,5.41-1.51,9.08,0,2.2.78,4.22,2.34,6.05,1.55,1.84,3.58,3.44,6.05,4.81,2.48,1.38,5.13,2.52,7.98,3.44,2.84.92,5.46,1.56,7.84,1.93v6.6c-5.87-.37-11.79-.64-17.75-.82-5.96-.19-11.88-.28-17.75-.28-5.5,0-11.01.09-16.51.28-5.5.18-11.01.46-16.51.82v-6.6ZM361.19,2910l-22.56-64.38h-.55l-23.94,64.38h47.05Z"/>
    <path class="cls-1" d="M649.25,2889.91c-1.29-8.43-3.85-16.55-7.7-24.35-3.85-7.79-8.62-14.67-14.31-20.63-5.69-5.96-12.15-10.73-19.39-14.31-7.25-3.58-15.09-5.37-23.53-5.37-11.01,0-20.27,2.48-27.79,7.43-7.52,4.95-13.57,11.24-18.16,18.85-4.59,7.61-7.84,16.09-9.77,25.45-1.93,9.35-2.89,18.43-2.89,27.24,0,11.38,1.55,21.87,4.68,31.5,3.12,9.63,7.7,17.98,13.76,25.04,6.05,7.06,13.62,12.57,22.7,16.51,9.08,3.95,19.67,5.92,31.78,5.92,8.62,0,16.46-1.28,23.52-3.85,7.06-2.57,13.39-5.87,18.99-9.91,5.59-4.03,10.54-8.57,14.86-13.62,4.31-5.04,8.11-10.04,11.42-14.99l6.6,6.88c-10.46,17.79-23.39,31.46-38.79,41-15.41,9.54-33.47,14.31-54.2,14.31-13.76,0-26.41-2.25-37.97-6.74-11.56-4.49-21.56-10.87-29.99-19.12-8.44-8.25-15.04-18.2-19.81-29.85-4.77-11.65-7.15-24.72-7.15-39.21s2.48-27.28,7.43-38.93c4.95-11.64,11.83-21.6,20.63-29.85,8.81-8.25,19.35-14.67,31.64-19.26,12.29-4.58,25.77-6.88,40.44-6.88,5.13,0,11.19.51,18.16,1.51,6.97,1.01,13.66,2.16,20.08,3.44,6.6,1.29,12.38,2.43,17.33,3.44,4.95,1.01,7.89,1.51,8.81,1.51,1.47,0,2.48-.09,3.02-.28,0,3.67-.09,7.2-.27,10.59-.19,3.4-.28,6.93-.28,10.59,0,7.7.28,15.37.83,22.97.55,7.61,1.28,15.27,2.2,22.97h-6.88Z"/>
    <path class="cls-1" d="M706.75,2991.99c5.5-.37,10.09-.87,13.76-1.51,3.67-.64,6.6-1.93,8.8-3.85,2.2-1.93,3.76-4.58,4.68-7.98.92-3.39,1.38-7.93,1.38-13.62v-107.3c0-6.6-.23-11.92-.69-15.96-.46-4.03-1.65-7.24-3.58-9.63-1.93-2.38-4.77-4.22-8.53-5.5-3.76-1.28-8.85-2.29-15.27-3.03v-6.6c15.77,1.1,31.64,1.65,47.6,1.65s31.73-.55,47.32-1.65v6.6c-6.79.74-12.2,1.75-16.23,3.03-4.03,1.29-7.06,3.12-9.08,5.5-2.02,2.39-3.3,5.6-3.85,9.63-.55,4.04-.83,9.36-.83,15.96v36.32h91.35v-36.32c0-6.6-.28-11.92-.83-15.96-.55-4.03-1.79-7.24-3.71-9.63-1.93-2.38-4.86-4.22-8.8-5.5-3.95-1.28-9.4-2.29-16.37-3.03v-6.6c16.32,1.1,32.47,1.65,48.42,1.65s31.73-.55,47.32-1.65v6.6c-6.79.74-12.11,1.75-15.96,3.03-3.85,1.29-6.74,3.12-8.67,5.5-1.93,2.39-3.16,5.6-3.71,9.63-.55,4.04-.83,9.36-.83,15.96v107.3c0,5.69.46,10.23,1.38,13.62.92,3.4,2.48,6.05,4.68,7.98,2.2,1.93,5.18,3.21,8.94,3.85,3.76.64,8.48,1.15,14.17,1.51v6.6c-7.89-.37-15.82-.64-23.8-.82-7.98-.19-15.92-.28-23.8-.28s-15.78.09-23.66.28c-7.89.18-15.78.46-23.66.82v-6.6c5.5-.37,10.09-.87,13.76-1.51,3.67-.64,6.64-1.93,8.94-3.85,2.29-1.93,3.9-4.58,4.82-7.98.92-3.39,1.38-7.93,1.38-13.62v-59.43h-91.35v59.43c0,5.69.46,10.23,1.38,13.62.92,3.4,2.52,6.05,4.82,7.98,2.29,1.93,5.32,3.21,9.08,3.85,3.76.64,8.39,1.15,13.89,1.51v6.6c-8.07-.37-16.09-.64-24.07-.82-7.98-.19-16.01-.28-24.07-.28s-15.46.09-23.25.28c-7.8.18-15.55.46-23.25.82v-6.6Z"/>
    <path class="cls-1" d="M1130.19,2874.5c-2.02-10.27-4.72-18.39-8.12-24.35-3.4-5.96-7.56-10.5-12.52-13.62-4.95-3.12-10.64-5.13-17.06-6.05-6.42-.92-13.76-1.38-22.01-1.38v131.51c0,6.24.28,11.33.83,15.27.55,3.95,1.83,7.11,3.85,9.49,2.02,2.39,5.04,4.13,9.08,5.23,4.03,1.1,9.54,1.93,16.51,2.48v5.5c-7.7-.37-15.45-.64-23.25-.82-7.8-.19-15.64-.28-23.52-.28-8.44,0-16.78.09-25.04.28-8.25.18-16.78.46-25.59.82v-5.5c6.97-.55,12.47-1.38,16.51-2.48,4.03-1.1,7.06-2.84,9.08-5.23,2.02-2.38,3.3-5.55,3.85-9.49.55-3.94.83-9.03.83-15.27v-131.51c-8.25,0-15.59.46-22.01,1.38-6.42.92-12.11,2.94-17.06,6.05-4.95,3.12-9.13,7.66-12.52,13.62-3.4,5.96-6.1,14.08-8.12,24.35h-7.15c.37-3.48.69-7.02.96-10.59.28-3.58.55-7.57.83-11.97.28-4.4.5-9.44.69-15.13.18-5.68.27-12.29.27-19.81,13.76.37,27.33.73,40.72,1.1,13.39.37,26.87.55,40.44.55s27.52-.18,41.27-.55c13.76-.37,27.6-.73,41.55-1.1,0,7.52.09,14.13.28,19.81.18,5.69.41,10.73.69,15.13.28,4.4.55,8.39.83,11.97.28,3.58.59,7.11.96,10.59h-6.05Z"/>
  </g>
  <g>
    <polygon class="cls-1" points="29.58 1813.57 892.11 751.06 654.14 97.18 29.58 1813.57"/>
    <polygon class="cls-1" points="1206.58 1813.56 652.68 1813.56 913.96 802.01 1206.58 1813.56"/>
    <polygon class="cls-1" points="29.58 1866.86 655.49 2119.51 1206.58 1866.86 29.58 1866.86"/>
  </g>
</svg>